<svg xmlns="http://www.w3.org/2000/svg" xmlns:xlink="http://www.w3.org/1999/xlink" version="1.1" x="0px" y="0px" viewBox="0 0 66 66" enable-background="new 0 0 66 66" xml:space="preserve"><g><g><path d="M63,41.7v-10C63,14.8,49.3,1,32.3,1C15.4,1,1.6,14.8,1.6,31.7v18.6c0,0.4,0.3,0.8,0.8,0.8h4.4c1,0,0.8-1.1,0.8-3.5h1.8    c0,1.6-0.3,2.8,0.8,2.8h5.5c2.8,0,5-2.2,5-5V39c0-2.8-2.2-5-5-5H10c-0.4,0-0.8,0.3-0.8,0.8v2H7.5v-5.1C7.5,18,18.6,6.9,32.3,6.9    C46,6.9,57.1,18,57.1,31.7v4.9h-1.8v-1.9c0-0.4-0.3-0.8-0.8-0.8c-5.6,0-6.8-0.3-8.6,1.2c-1.1,0.9-1.8,2.3-1.8,3.8v0v6.4v0    c0,2.7,2.2,5,5,5h5.4c0.4,0,0.8-0.3,0.8-0.8v-2.2h1.8v2.9c0,0.4,0.3,0.8,0.8,0.8h4.4c0.3,0,0.5-0.1,0.6-0.4v2.4    c0,4.2-3.4,7.6-7.6,7.6H37.9c-0.3-1.6-1.7-2.8-3.4-2.8h-4.3c-1.9,0-3.5,1.6-3.5,3.5s1.6,3.5,3.5,3.5h4.3c1.7,0,3-1.2,3.4-2.7h17.4    c5,0,9.1-4.1,9.1-9.1V42.1C64.4,41.3,63.4,41,63,41.7z M45.7,46.1c0-0.2-0.1-0.4-0.1-0.6c0,0,0,0,0,0V39c0-1.6,1.2-3.1,2.8-3.4    v13.2C47.1,48.6,46,47.5,45.7,46.1z M53.8,48.9h-3.9V35.5h3.9C53.8,38.1,53.8,34.4,53.8,48.9z M57.1,46h-1.8v-7.8h1.8V46z     M19,45.4c0,0.2,0,0.4-0.1,0.7c0,0.1,0,0.1-0.1,0.2c-0.3,1.3-1.4,2.3-2.6,2.6V35.6C17.9,36,19,37.5,19,39V45.4z M14.7,35.5V49h-4    c0-1,0-13.4,0-13.4H14.7z M9.3,38.3v7.8H7.5v-7.8H9.3z M61.5,49.6h-2.9V31.7c0-14.5-11.8-26.3-26.3-26.3C17.8,5.4,6,17.2,6,31.7    c0,8.8,0,10.4,0,17.9H3.1V31.7c0-16.1,13.1-29.2,29.2-29.2c16.1,0,29.2,13.1,29.2,29.2V49.6z M34.4,63.5h-4.3c-1.1,0-2-0.9-2-2    c0-1.1,0.9-2,2-2h4.3c1.1,0,2,0.9,2,2C36.4,62.6,35.5,63.5,34.4,63.5z"></path></g></g></svg>