<svg xmlns="http://www.w3.org/2000/svg" xmlns:xlink="http://www.w3.org/1999/xlink" version="1.1" x="0px" y="0px" viewBox="0 0 24 24" style="enable-background:new 0 0 24 24;" xml:space="preserve"><g><path d="M4.979,24.008L4.166,23.54l0.951-5.63C1.996,16.272,0,13.012,0,9.5C0,4.262,4.262,0,9.5,0h5C19.738,0,24,4.262,24,9.5   S19.738,19,14.5,19h-3.505L4.979,24.008z M9.5,1C4.813,1,1,4.813,1,9.5c0,3.254,1.917,6.268,4.885,7.676l0.279,0.535l-0.788,4.664   l5.118-4.26L10.814,18H14.5c4.687,0,8.5-3.813,8.5-8.5C23,4.813,19.187,1,14.5,1H9.5z"></path><path d="M17.95,7L17,6.95L17.05,6L18,6.05L17.95,7z M14.95,7L6,6.95L6.05,6L15,6.05L14.95,7z"></path><path d="M17.95,13L9,12.95L9.05,12L18,12.05L17.95,13z M6.95,13L6,12.95L6.05,12L7,12.05L6.95,13z"></path><path d="M18,10h-4V9h4V10z M12,10H6V9h6V10z"></path></g></svg>