<svg xmlns="http://www.w3.org/2000/svg" xmlns:xlink="http://www.w3.org/1999/xlink" xml:space="preserve" version="1.1" style="shape-rendering:geometricPrecision;text-rendering:geometricPrecision;image-rendering:optimizeQuality;" viewBox="0 0 333 333" x="0px" y="0px" fill-rule="evenodd" clip-rule="evenodd"><defs><style type="text/css">
   
    .fil0 {fill:black}
   
  </style></defs><g><path class="fil0" d="M129 138c19,25 41,48 66,67l13 -13c10,-10 25,-9 37,-2l39 25c15,9 14,30 2,41 -9,9 -19,19 -28,29 -38,37 -121,-38 -146,-63 -26,-25 -101,-109 -63,-146 9,-10 19,-20 28,-29 12,-11 33,-12 42,2l24 39c7,12 9,27 -2,37l-12 13zm-22 -82l25 39c4,7 5,15 0,21l-21 21c24,33 52,62 86,85l20 -20c6,-6 14,-5 21,0l39 24c7,4 6,15 0,20 -10,10 -19,20 -29,29 -43,43 -233,-147 -190,-190 10,-9 19,-19 29,-29 6,-5 16,-7 20,0z"></path></g></svg>