<svg xmlns="http://www.w3.org/2000/svg" xmlns:xlink="http://www.w3.org/1999/xlink" version="1.1" x="0px" y="0px" viewBox="0 0 140 140" style="enable-background:new 0 0 140 140;" xml:space="preserve"><g><g><g><path d="M92.0283203,135H10.3017578C7.378418,135,5,132.621582,5,129.6982422V10.3017578C5,7.378418,7.378418,5,10.3017578,5     h81.7265625c2.9233398,0,5.3012695,2.378418,5.3012695,5.3017578v34.8183594c0,0.5522461-0.4477539,1-1,1s-1-0.4477539-1-1     V10.3017578C95.3295898,8.480957,93.8486328,7,92.0283203,7H10.3017578C8.480957,7,7,8.480957,7,10.3017578v119.3964844     C7,131.519043,8.480957,133,10.3017578,133h81.7265625c1.8203125,0,3.3012695-1.480957,3.3012695-3.3017578V93.409668     c0-0.5522461,0.4477539-1,1-1s1,0.4477539,1,1v36.2885742C97.3295898,132.621582,94.9516602,135,92.0283203,135z"></path></g><g><g><path d="M63.4296875,59.9897461H16c-0.5522461,0-1-0.4477539-1-1V18.6499023c0-0.5522461,0.4477539-1,1-1h70.3295898      c0.5522461,0,1,0.4477539,1,1v26.4702148c0,0.5522461-0.4477539,1-1,1s-1-0.4477539-1-1V19.6499023H17v38.3398438h46.4296875      c0.5522461,0,1,0.4477539,1,1S63.9819336,59.9897461,63.4296875,59.9897461z"></path></g><g><g><path d="M23.2495117,81.5698242c-4.5488281,0-8.25-3.7011719-8.25-8.25s3.7011719-8.25,8.25-8.25s8.25,3.7011719,8.25,8.25       S27.7983398,81.5698242,23.2495117,81.5698242z M23.2495117,67.0698242c-3.4462891,0-6.25,2.8037109-6.25,6.25       s2.8037109,6.25,6.25,6.25s6.25-2.8037109,6.25-6.25S26.6958008,67.0698242,23.2495117,67.0698242z"></path></g><g><path d="M50.434082,81.5698242c-4.5488281,0-8.25-3.7011719-8.25-8.25s3.7011719-8.25,8.25-8.25s8.25,3.7011719,8.25,8.25       S54.9829102,81.5698242,50.434082,81.5698242z M50.434082,67.0698242c-3.4462891,0-6.25,2.8037109-6.25,6.25       s2.8037109,6.25,6.25,6.25s6.25-2.8037109,6.25-6.25S53.8803711,67.0698242,50.434082,67.0698242z"></path></g><g><path d="M23.2495117,102.8520508c-4.5488281,0-8.25-3.7011719-8.25-8.25s3.7011719-8.25,8.25-8.25s8.25,3.7011719,8.25,8.25       S27.7983398,102.8520508,23.2495117,102.8520508z M23.2495117,88.3520508c-3.4462891,0-6.25,2.8037109-6.25,6.25       s2.8037109,6.25,6.25,6.25s6.25-2.8037109,6.25-6.25S26.6958008,88.3520508,23.2495117,88.3520508z"></path></g><g><path d="M50.434082,102.8520508c-4.5488281,0-8.25-3.7011719-8.25-8.25s3.7011719-8.25,8.25-8.25s8.25,3.7011719,8.25,8.25       S54.9829102,102.8520508,50.434082,102.8520508z M50.434082,88.3520508c-3.4462891,0-6.25,2.8037109-6.25,6.25       s2.8037109,6.25,6.25,6.25s6.25-2.8037109,6.25-6.25S53.8803711,88.3520508,50.434082,88.3520508z"></path></g><g><path d="M77.6196289,102.8500977c-4.5488281,0-8.25-3.7011719-8.25-8.25c0-0.5078125,0.0429688-0.9628906,0.1308594-1.3916016       c0.1108398-0.5405273,0.6367188-0.8916016,1.1806641-0.7783203c0.5410156,0.1108398,0.8896484,0.6396484,0.7783203,1.1806641       c-0.0610352,0.2988281-0.0898438,0.6132812-0.0898438,0.9892578c0,3.4462891,2.8037109,6.25,6.25,6.25       s6.25-2.8037109,6.25-6.25c0-0.3779297-0.0283203-0.6918945-0.0893555-0.9892578       c-0.1113281-0.5410156,0.2373047-1.0698242,0.7783203-1.1806641c0.543457-0.1132812,1.0698242,0.237793,1.1806641,0.7783203       c0.0878906,0.4272461,0.1303711,0.8823242,0.1303711,1.3916016       C85.8696289,99.1489258,82.168457,102.8500977,77.6196289,102.8500977z"></path></g><g><path d="M23.2495117,124.1337891c-4.5488281,0-8.25-3.7011719-8.25-8.25s3.7011719-8.25,8.25-8.25s8.25,3.7011719,8.25,8.25       S27.7983398,124.1337891,23.2495117,124.1337891z M23.2495117,109.6337891c-3.4462891,0-6.25,2.8037109-6.25,6.25       s2.8037109,6.25,6.25,6.25s6.25-2.8037109,6.25-6.25S26.6958008,109.6337891,23.2495117,109.6337891z"></path></g><g><path d="M50.434082,124.1337891c-4.5488281,0-8.25-3.7011719-8.25-8.25s3.7011719-8.25,8.25-8.25s8.25,3.7011719,8.25,8.25       S54.9829102,124.1337891,50.434082,124.1337891z M50.434082,109.6337891c-3.4462891,0-6.25,2.8037109-6.25,6.25       s2.8037109,6.25,6.25,6.25s6.25-2.8037109,6.25-6.25S53.8803711,109.6337891,50.434082,109.6337891z"></path></g><g><path d="M77.6186523,124.1337891c-4.5488281,0-8.25-3.7011719-8.25-8.25s3.7011719-8.25,8.25-8.25s8.25,3.7011719,8.25,8.25       S82.1674805,124.1337891,77.6186523,124.1337891z M77.6186523,109.6337891c-3.4462891,0-6.25,2.8037109-6.25,6.25       s2.8037109,6.25,6.25,6.25s6.25-2.8037109,6.25-6.25S81.0649414,109.6337891,77.6186523,109.6337891z"></path></g></g></g></g><g><g><path d="M134,94.4140625H63.4282227c-0.5522461,0-1-0.4477539-1-1V45.1235352c0-0.5522461,0.4477539-1,1-1H134     c0.5522461,0,1,0.4477539,1,1v48.2905273C135,93.9663086,134.5522461,94.4140625,134,94.4140625z M64.4282227,92.4140625H133     V46.1235352H64.4282227V92.4140625z"></path></g><g><g><path d="M125.0380859,89.7280273c-2.9521484,0-5.3540039-2.4018555-5.3540039-5.3540039      c0-2.9526367,2.4018555-5.3544922,5.3540039-5.3544922s5.3540039,2.4018555,5.3540039,5.3544922      C130.3920898,87.3261719,127.9902344,89.7280273,125.0380859,89.7280273z M125.0380859,81.0195312      c-1.8496094,0-3.3540039,1.5048828-3.3540039,3.3544922s1.5043945,3.3540039,3.3540039,3.3540039      s3.3540039-1.5043945,3.3540039-3.3540039S126.8876953,81.0195312,125.0380859,81.0195312z"></path></g><g><path d="M118.6831055,89.7255859c-2.9521484,0-5.3535156-2.4013672-5.3535156-5.3535156      s2.4013672-5.3535156,5.3535156-5.3535156c1.4799805,0,2.9057617,0.621582,3.9121094,1.7060547      c0.3759766,0.4047852,0.3520508,1.0375977-0.0527344,1.4130859c-0.4047852,0.375-1.0375977,0.3520508-1.4130859-0.0527344      c-0.6381836-0.6875-1.5073242-1.0664062-2.4462891-1.0664062c-1.8491211,0-3.3535156,1.5043945-3.3535156,3.3535156      s1.5043945,3.3535156,3.3535156,3.3535156c0.9375,0,1.8076172-0.3769531,2.449707-1.0620117      c0.378418-0.4033203,1.0117188-0.421875,1.4135742-0.0454102c0.402832,0.3779297,0.4233398,1.0107422,0.0454102,1.4135742      C121.5820312,89.1083984,120.1577148,89.7255859,118.6831055,89.7255859z"></path></g></g><g><path d="M129.3920898,75.3198242h-60.512207c-0.5522461,0-1-0.4477539-1-1s0.4477539-1,1-1h60.512207     c0.5522461,0,1,0.4477539,1,1S129.9443359,75.3198242,129.3920898,75.3198242z"></path></g><g><path d="M87.2592773,86.0698242H68.8798828c-0.5522461,0-1-0.4477539-1-1s0.4477539-1,1-1h18.3793945     c0.5522461,0,1,0.4477539,1,1S87.8115234,86.0698242,87.2592773,86.0698242z"></path></g><g><path d="M83.059082,62.4853516H68.8798828c-0.5522461,0-1-0.4477539-1-1V50.6972656c0-0.5522461,0.4477539-1,1-1H83.059082     c0.5522461,0,1,0.4477539,1,1v10.7880859C84.059082,62.0375977,83.6113281,62.4853516,83.059082,62.4853516z      M69.8798828,60.4853516H82.059082v-8.7880859H69.8798828V60.4853516z"></path></g></g></g></svg>