<?xml version="1.0" encoding="UTF-8"?>
<svg width="239px" height="68px" viewBox="0 0 239 68" version="1.1" xmlns="http://www.w3.org/2000/svg" xmlns:xlink="http://www.w3.org/1999/xlink">
    <!-- Generator: Sketch 47.1 (45422) - http://www.bohemiancoding.com/sketch -->
    <title>logo_pk</title>
    <desc>Created with Sketch.</desc>
    <defs>
        <polygon id="path-1" points="19.6178535 0.0764444444 0.0264088398 0.0764444444 0.0264088398 38.7766293 39.2092983 38.7766293 39.2092983 0.0764444444 19.6178535 0.0764444444"></polygon>
        <polygon id="path-3" points="0.11504992 21.3333333 187.456547 21.3333333 187.456547 0.139353061 0.11504992 0.139353061 0.11504992 21.3333333"></polygon>
    </defs>
    <g id="V1" stroke="none" stroke-width="1" fill="none" fill-rule="evenodd">
        <g id="00.01_PK_Splash" transform="translate(-68.000000, -267.000000)">
            <g id="logo_pk" transform="translate(68.000000, 267.000000)">
                <g id="logo_PK_baseline_jaune_paysage">
                    <g id="Group-3">
                        <mask id="mask-2" fill="white">
                            <use xlink:href="#path-1"></use>
                        </mask>
                        <g id="Clip-2"></g>
                        <path d="M34.8165341,0.0764444444 L4.55244383,0.0764444444 C3.84556722,0.0764444444 3.10303867,0.264888889 2.43841621,0.584 C1.01806077,1.26577778 0.363561694,2.36222222 0.0356519337,3.90755556 C-0.00924309392,4.12266667 0.000880294659,4.23333333 0.000880294659,4.44355556 L0.000880294659,34.1551111 C0.000880294659,34.3653333 -0.00352117864,34.5711111 0.0356519337,34.7871111 C0.423861878,36.9004444 2.10126335,38.5342222 4.23421731,38.7164444 C4.90324125,38.7737778 5.53661326,38.7542222 6.20871823,38.7542222 C11.0837901,38.7586667 15.9179282,38.7431111 20.7934401,38.7431111 L21.9268195,38.7431111 C21.7410773,38.7431111 21.6552486,38.3324444 21.5293665,38.2102222 C15.9258508,32.7097778 10.3214549,27.2155556 4.70781584,21.7266667 C3.6017256,20.6444444 3.5515488,19.4382222 4.66776243,18.3408889 C9.30251381,13.7808889 13.9434273,9.22888889 18.5869816,4.68088889 C19.5553057,3.73288889 20.8326133,3.74266667 21.8101805,4.69911111 C26.0936943,8.892 30.3741271,13.0893333 34.6475175,17.2928889 C35.8253517,18.4506667 35.8310737,19.5808889 34.6541197,20.7373333 C31.8032855,23.5368889 28.9326446,26.3164444 26.0765285,29.1111111 C24.7345193,30.4248889 24.7974604,31.2977778 26.1504733,32.58 C28.1315764,34.4564444 30.0457772,36.4048889 32.0255599,38.2844444 C32.3134162,38.5577778 32.799779,38.7328889 33.2025138,38.7488889 C34.5132726,38.7986667 35.8354751,38.8604444 37.0511621,38.1617778 C38.3751252,37.4013333 38.8812947,36.2853333 39.192919,34.788 C39.2386943,34.5724444 39.1739926,34.3657778 39.1739926,34.1551111 L39.1739926,4.44355556 C39.1739926,1.68311111 37.5168379,0.0764444444 34.8165341,0.0764444444" id="Fill-1" fill="#DE5132" mask="url(#mask-2)"></path>
                    </g>
                    <path d="M24.6447293,17.6195556 C23.699733,16.6577778 22.7428527,15.7066667 21.7767293,14.7675556 C20.6926464,13.7128889 19.6979134,13.7008889 18.6230737,14.7475556 C17.3158361,16.02 16.0240037,17.3115556 14.7392136,18.6084444 C13.820186,19.5346667 13.8105028,20.4111111 14.7097238,21.3293333 C15.7123794,22.352 16.7123941,23.3813333 17.7643462,24.3502222 C18.1323094,24.6888889 18.6543241,24.856 19.1503702,25.1257778 C19.6499374,24.8853333 20.1451031,24.7715556 20.4690516,24.4702222 C21.9056924,23.1311111 23.3154843,21.76 24.691825,20.3564444 C25.5857643,19.4448889 25.5443904,18.5346667 24.6447293,17.6195556" id="Fill-4" fill="#DE5132"></path>
                    <path d="M62.2905304,16.9284444 C65.1717348,16.9284444 66.8557385,15.1906667 66.8557385,12.924 L66.8557385,12.848 C66.8557385,10.2413333 65.0594972,8.84355556 62.178733,8.84355556 L57.7257624,8.84355556 L57.7257624,16.9284444 L62.2905304,16.9284444 L62.2905304,16.9284444 Z M51.964674,3.592 L62.6650958,3.592 C68.9134273,3.592 72.6925322,7.33244444 72.6925322,12.7346667 L72.6925322,12.8102222 C72.6925322,18.9306667 67.9781142,22.1044444 62.1039079,22.1044444 L57.7257624,22.1044444 L57.7257624,30.0386667 L51.964674,30.0386667 L51.964674,3.592 L51.964674,3.592 Z" id="Fill-5" fill="#353837"></path>
                    <path d="M87.4700387,22.8982222 L87.4700387,21.8782222 C86.4973131,21.4244444 85.2248471,21.1217778 83.8405838,21.1217778 C81.4087698,21.1217778 79.9122689,22.1044444 79.9122689,23.9182222 L79.9122689,23.9933333 C79.9122689,25.5426667 81.1838545,26.4493333 83.0170681,26.4493333 C85.6737974,26.4493333 87.4700387,24.9755556 87.4700387,22.8982222 L87.4700387,22.8982222 Z M74.4121878,24.22 L74.4121878,24.1444444 C74.4121878,19.7244444 77.7419024,17.684 82.493733,17.684 C84.5140092,17.684 85.9730976,18.024 87.3952136,18.5151111 L87.3952136,18.1755556 C87.3952136,15.7951111 85.9356851,14.4728889 83.0918932,14.4728889 C80.922407,14.4728889 79.3880534,14.8884444 77.5548398,15.5684444 L76.1331639,11.1857778 C78.3405028,10.2035556 80.5104291,9.56133333 83.9154088,9.56133333 C87.0206483,9.56133333 89.2662799,10.3924444 90.6875157,11.828 C92.1840166,13.3395556 92.8578821,15.5684444 92.8578821,18.2884444 L92.8578821,30.0386667 L87.3578011,30.0386667 L87.3578011,27.8471111 C85.9730976,29.3964444 84.0650589,30.4164444 81.2960921,30.4164444 C77.5169871,30.4164444 74.4121878,28.2253333 74.4121878,24.22 L74.4121878,24.22 Z" id="Fill-6" fill="#353837"></path>
                    <path d="M97.3830368,9.788 L103.07018,9.788 L103.07018,13.8684444 C104.230409,11.0724444 106.101035,9.25911111 109.468162,9.41022222 L109.468162,15.4173333 L109.168862,15.4173333 C105.389757,15.4173333 103.07018,17.7217778 103.07018,22.5577778 L103.07018,30.0386667 L97.3830368,30.0386667 L97.3830368,9.788" id="Fill-7" fill="#353837"></path>
                    <polyline id="Fill-8" fill="#353837" points="112.647346 2.45866667 118.33493 2.45866667 118.33493 17.1551111 124.994359 9.788 131.803878 9.788 124.170843 17.76 132.066206 30.0386667 125.555987 30.0386667 120.317354 21.7644444 118.33493 23.8804444 118.33493 30.0386667 112.647346 30.0386667 112.647346 2.45866667"></polyline>
                    <path d="M148.601661,20.0266667 L148.601661,19.9511111 C148.601661,16.9662222 146.469147,14.3595556 143.326495,14.3595556 C140.071166,14.3595556 138.125715,16.8906667 138.125715,19.8755556 L138.125715,19.9511111 C138.125715,22.9355556 140.258228,25.5426667 143.40132,25.5426667 C146.65621,25.5426667 148.601661,23.0111111 148.601661,20.0266667 L148.601661,20.0266667 Z M132.512956,20.0266667 L132.512956,19.9511111 C132.512956,14.1328889 137.152549,9.41022222 143.40132,9.41022222 C149.612239,9.41022222 154.21442,14.0568889 154.21442,19.8755556 L154.21442,19.9511111 C154.21442,25.7693333 149.574827,30.492 143.326495,30.492 C137.115136,30.492 132.512956,25.8448889 132.512956,20.0266667 L132.512956,20.0266667 Z" id="Fill-9" fill="#353837"></path>
                    <path d="M173.331339,19.9511111 L173.331339,19.8755556 C173.331339,16.5128889 171.086147,14.284 168.429858,14.284 C165.773569,14.284 163.56579,16.5128889 163.56579,19.8755556 L163.56579,19.9511111 C163.56579,23.3133333 165.773569,25.5426667 168.429858,25.5426667 C171.086147,25.5426667 173.331339,23.3511111 173.331339,19.9511111 L173.331339,19.9511111 Z M157.953031,9.788 L163.640615,9.788 L163.640615,12.6968889 C165.024878,10.808 166.933357,9.41022222 169.888506,9.41022222 C174.565512,9.41022222 179.018483,13.1124444 179.018483,19.8755556 L179.018483,19.9511111 C179.018483,26.7142222 174.640777,30.4164444 169.888506,30.4164444 C166.858532,30.4164444 164.987906,29.0182222 163.640615,27.3937778 L163.640615,36.0835556 L157.953031,36.0835556 L157.953031,9.788 L157.953031,9.788 Z" id="Fill-10" fill="#353837"></path>
                    <path d="M197.947899,20.0266667 L197.947899,19.9511111 C197.947899,16.9662222 195.815385,14.3595556 192.672293,14.3595556 C189.417843,14.3595556 187.471952,16.8906667 187.471952,19.8755556 L187.471952,19.9511111 C187.471952,22.9355556 189.604026,25.5426667 192.747118,25.5426667 C196.002888,25.5426667 197.947899,23.0111111 197.947899,20.0266667 L197.947899,20.0266667 Z M181.859634,20.0266667 L181.859634,19.9511111 C181.859634,14.1328889 186.499227,9.41022222 192.747118,9.41022222 C198.958037,9.41022222 203.560217,14.0568889 203.560217,19.8755556 L203.560217,19.9511111 C203.560217,25.7693333 198.921064,30.492 192.672293,30.492 C186.461374,30.492 181.859634,25.8448889 181.859634,20.0266667 L181.859634,20.0266667 Z" id="Fill-11" fill="#353837"></path>
                    <polygon id="Fill-12" fill="#353837" points="207.561597 30.0386667 213.2483 30.0386667 213.2483 2.45866667 207.561597 2.45866667"></polygon>
                    <path d="M217.961838,34.7991111 L219.869436,30.6426667 C220.618127,31.0964444 221.55344,31.4364444 222.302131,31.4364444 C223.274416,31.4364444 223.798192,31.1342222 224.284554,30.1142222 L216.427484,9.788 L222.451341,9.788 L227.015669,23.5777778 L231.393814,9.788 L237.304993,9.788 L229.598013,30.5293333 C228.063659,34.6475556 226.417508,36.1964444 223.012529,36.1964444 C220.95484,36.1964444 219.420926,35.668 217.961838,34.7991111" id="Fill-13" fill="#353837"></path>
                    <path d="M117.013608,62.6973333 C117.732808,62.4742222 118.439245,62.2013333 119.131597,61.88 C119.823508,61.5586667 120.5163,61.244 121.208652,60.936 C121.374587,60.852 121.630753,60.6915556 121.977149,60.4537778 C122.323105,60.216 122.676103,59.9991111 123.036144,59.8035556 C123.396184,59.608 123.735098,59.4746667 124.054204,59.4048889 C124.371991,59.3355556 124.614512,59.4257778 124.780888,59.6777778 C124.919094,59.9013333 124.939781,60.1182222 124.843389,60.3275556 C124.746116,60.5373333 124.600867,60.7471111 124.407203,60.9564444 C124.213098,61.1666667 124.004908,61.3626667 123.783954,61.544 C123.56212,61.7262222 123.396184,61.8728889 123.285707,61.9844444 C122.870208,62.404 122.468354,62.8653333 122.081024,63.3684444 C121.692374,63.872 121.499149,64.4035556 121.499149,64.9626667 C121.997836,64.9626667 122.523812,64.8368889 123.077958,64.5853333 C123.631663,64.3333333 124.116265,64.1235556 124.532204,63.956 C125.861009,63.3413333 127.175729,62.6417778 128.477685,61.8586667 C129.197326,61.4115556 129.848744,60.964 130.430179,60.5164444 C130.679302,60.3484444 130.935028,60.3484444 131.198676,60.5164444 C131.461444,60.684 131.565319,60.936 131.50986,61.2711111 C131.454401,61.5231111 131.336882,61.7684444 131.157302,62.0053333 C130.976842,62.2435556 130.817948,62.488 130.679302,62.7395556 C130.540656,62.9635556 130.409492,63.2711111 130.28493,63.6622222 C130.160368,64.0542222 130.153326,64.4035556 130.264243,64.7111111 C130.568385,64.8786667 130.94251,64.9 131.385738,64.7737778 C131.828087,64.648 132.188127,64.5431111 132.46586,64.4591111 C133.655578,64.0395556 134.763869,63.5648889 135.788972,63.0328889 C135.981757,62.9493333 136.225158,62.8306667 136.515656,62.6768889 C136.806153,62.5231111 137.020505,62.5857778 137.159591,62.8653333 C137.298238,63.1168889 137.27711,63.3057778 137.09665,63.4315556 C136.91663,63.5573333 136.730007,63.6622222 136.536343,63.7462222 L133.795105,65.0466667 C133.21323,65.2982222 132.575897,65.5853333 131.883985,65.9062222 C131.191634,66.228 130.498842,66.3048889 129.80693,66.1368889 C129.308683,65.9973333 129.024788,65.7111111 128.955685,65.2768889 C128.886142,64.844 128.920473,64.4315556 129.05956,64.0395556 L129.682368,62.5297778 C128.961847,62.8653333 128.262893,63.2155556 127.584626,63.5782222 C126.905919,63.9417778 126.206525,64.2777778 125.487324,64.5853333 C125.181862,64.7524444 124.822262,64.956 124.407203,65.1933333 C123.991703,65.4311111 123.555517,65.6546667 123.098645,65.864 C122.641772,66.0737778 122.191061,66.228 121.748273,66.3257778 C121.305484,66.4231111 120.918155,66.4022222 120.585843,66.2626667 C120.253092,66.1515556 120.079674,65.9346667 120.066029,65.6124444 C120.052385,65.2915556 120.12853,64.9204444 120.294906,64.5008889 C120.460842,64.0817778 120.69588,63.6346667 121.000902,63.1591111 C121.305484,62.6835556 121.623711,62.2222222 121.956462,61.7746667 L120.959088,62.236 C119.823508,62.6555556 119.007035,62.9773333 118.508348,63.2008889 C118.010101,63.4248889 117.621891,63.5648889 117.345039,63.6204444 C117.179543,63.6768889 117.047499,63.6622222 116.950667,63.5782222 C116.854274,63.4942222 116.784731,63.3968889 116.743357,63.2848889 C116.701543,63.1733333 116.701543,63.0613333 116.743357,62.9493333 C116.784731,62.8377778 116.874961,62.7537778 117.013608,62.6973333" id="Fill-14" fill="#F2AF3A"></path>
                    <path d="M136.452715,62.7395556 C136.645939,62.628 136.999378,62.4248889 137.512149,62.1311111 C138.024041,61.8377778 138.591831,61.5373333 139.215079,61.2297778 C139.838328,60.9217778 140.467738,60.636 141.105072,60.3697778 C141.741525,60.1044444 142.29523,59.9573333 142.766188,59.9293333 C142.932564,59.8733333 143.105101,59.8808889 143.285562,59.9502222 C143.465142,60.0204444 143.597186,60.1115556 143.680374,60.2226667 C143.846309,60.5026667 143.860394,60.7195556 143.721748,60.8728889 C143.583101,61.0271111 143.403521,61.16 143.182127,61.2711111 C142.960293,61.3831111 142.717772,61.4746667 142.455004,61.544 C142.191355,61.6142222 142.018818,61.7053333 141.93607,61.8168889 C141.796543,61.9844444 141.831755,62.1386667 142.039505,62.2782222 C142.247254,62.4186667 142.50298,62.5297778 142.808002,62.6137778 C143.112584,62.6973333 143.417166,62.7746667 143.721748,62.8444444 C144.02677,62.9146667 144.220435,62.9773333 144.303622,63.0328889 C144.856888,63.3413333 145.182157,63.6693333 145.279429,64.0186667 C145.376262,64.3684444 145.313761,64.7253333 145.092807,65.088 L146.213862,64.5008889 L149.536974,62.7395556 C149.730639,62.628 149.904057,62.6208889 150.056788,62.7182222 C150.208639,62.8168889 150.284785,62.9773333 150.284785,63.2008889 C150.284785,63.4248889 150.167265,63.5857778 149.932227,63.6831111 C149.695867,63.7817778 149.481516,63.872 149.288291,63.956 C148.623228,64.264 147.952004,64.592 147.273737,64.9413333 C146.594589,65.2915556 145.923365,65.648 145.258742,66.0115556 C144.455473,66.4022222 143.686976,66.752 142.953691,67.06 C142.219525,67.3671111 141.464672,67.5213333 140.689573,67.5213333 C140.135427,67.5213333 139.644223,67.3253333 139.215079,66.9342222 C138.785055,66.5422222 138.571144,66.0951111 138.571144,65.5915556 C138.543414,65.34 138.598873,65.1377778 138.737079,64.9835556 C138.875726,64.8302222 139.041221,64.732 139.235766,64.6897778 C139.428991,64.648 139.602409,64.6831111 139.75514,64.7946667 C139.906991,64.9066667 139.997221,65.088 140.02495,65.34 C140.080409,65.9 140.32249,66.228 140.752074,66.3257778 C141.181217,66.4231111 141.686506,66.4022222 142.268381,66.2626667 C142.655271,66.1231111 143.008269,65.9484444 143.327376,65.7382222 C143.645162,65.5288889 143.873599,65.3266667 144.012685,65.1302222 C144.372285,64.7391111 144.469118,64.4315556 144.303622,64.2075556 C144.137687,63.984 143.852912,63.8026667 143.451937,63.6622222 C143.050083,63.5226667 142.627541,63.404 142.185193,63.3057778 C141.741525,63.208 141.437383,63.0893333 141.271448,62.9493333 C141.021884,62.7257778 140.876635,62.5022222 140.834821,62.2782222 C140.793448,62.0546667 140.80005,61.8311111 140.855948,61.6066667 C140.440009,61.7746667 140.031552,61.9497778 139.630138,62.1311111 C139.228724,62.3133333 138.861641,62.4742222 138.52933,62.6137778 C138.280646,62.7537778 137.982227,62.956 137.636711,63.2217778 C137.289875,63.488 136.97825,63.6204444 136.701838,63.6204444 C136.563192,63.6484444 136.446112,63.6275556 136.34884,63.5573333 C136.252007,63.488 136.196989,63.404 136.182464,63.3057778 C136.16926,63.208 136.182464,63.1035556 136.224278,62.9911111 C136.266092,62.88 136.342238,62.7955556 136.452715,62.7395556" id="Fill-15" fill="#F2AF3A"></path>
                    <path d="M161.957052,62.648 C162.676692,62.3964444 163.362002,62.0888889 164.01342,61.7253333 C164.663077,61.3622222 165.335182,61.0266667 166.027534,60.7186667 C166.470762,60.4951111 166.927195,60.3133333 167.398153,60.1733333 C167.86911,60.0337778 168.339628,59.8942222 168.810586,59.7537778 C169.364291,59.5586667 169.95981,59.46 170.597144,59.46 C170.846267,59.46 171.054017,59.5724444 171.220392,59.796 C171.386328,60.02 171.399972,60.2573333 171.261766,60.5088889 C171.178578,60.6768889 171.054017,60.796 170.887641,60.8653333 C170.721705,60.9355556 170.534643,60.9773333 170.326893,60.9915556 C170.119144,61.0057778 169.911834,61.012 169.704085,61.012 L169.143337,61.012 C168.754687,61.0404444 168.360315,61.1591111 167.959341,61.3684444 C167.557486,61.5786667 167.176319,61.8373333 166.817158,62.1444444 C166.346201,62.48 165.916617,62.928 165.529287,63.4871111 C165.501558,63.5435556 165.439057,63.6617778 165.342225,63.8435556 C165.244952,64.0257778 165.155602,64.2146667 165.071974,64.4097778 C164.989667,64.6053333 164.926726,64.7875556 164.885352,64.9551111 C164.843978,65.1226667 164.864665,65.2488889 164.947853,65.3324444 C165.0306,65.4164444 165.161764,65.4377778 165.342225,65.3955556 C165.522245,65.3533333 165.702265,65.284 165.882285,65.1857778 C166.062306,65.088 166.228241,64.9906667 166.380972,64.892 C166.532383,64.7942222 166.636698,64.7315556 166.692597,64.7031111 C167.162674,64.424 167.606343,64.1306667 168.021401,63.8226667 C168.436901,63.5151111 168.865604,63.208 169.309273,62.9 L171.261766,61.1382222 C171.732284,60.16 172.23053,59.1875556 172.756947,58.2231111 C173.282483,57.2582222 173.822543,56.3008889 174.377129,55.3497778 C174.764459,54.7066667 175.151788,54.064 175.539998,53.42 C175.927768,52.7773333 176.343267,52.1346667 176.786055,51.4911111 C177.201554,50.9035556 177.658427,50.2955556 178.157114,49.6662222 C178.655361,49.0368889 180.41595,47.6355556 181.022913,48.0511111 C181.838947,48.6102222 177.773306,52.7497778 176.942308,53.888 C175.401792,55.9991111 172.300074,61.3897778 172.300074,61.3897778 C172.300074,61.3897778 172.030263,62.1595556 171.905262,62.5222222 C171.7807,62.8857778 171.649096,63.2635556 171.51089,63.6546667 C171.454991,63.7946667 171.39249,63.9626667 171.323827,64.1582222 C171.254724,64.3542222 171.18518,64.564 171.116517,64.7875556 C171.046534,65.0115556 170.991516,65.2346667 170.950142,65.4582222 C170.908768,65.6822222 170.901285,65.864 170.929455,66.0035556 C171.427702,65.976 171.932991,65.864 172.445322,65.668 C172.957654,65.4728889 173.435214,65.2768889 173.878442,65.0808889 C174.653982,64.7733333 175.436123,64.4031111 176.225308,63.9693333 C177.014492,63.536 177.768904,63.1235556 178.489425,62.732 C178.572173,62.6764444 178.690133,62.6413333 178.842424,62.6271111 C178.994274,62.6133333 179.132921,62.6208889 179.257923,62.648 C179.382484,62.6764444 179.45863,62.7462222 179.485919,62.8577778 C179.513648,62.9697778 179.472274,63.1235556 179.361357,63.3191111 C179.222711,63.5435556 179.015401,63.704 178.738549,63.8017778 C178.461256,63.9 178.226217,63.9902222 178.032112,64.0742222 C177.257013,64.4662222 176.481033,64.8711111 175.705934,65.2902222 C174.930834,65.7102222 174.169379,66.1293333 173.422009,66.5488889 C173.199735,66.66 172.950611,66.7933333 172.674199,66.9475556 C172.396906,67.1008889 172.105969,67.2337778 171.801387,67.3457778 C171.496365,67.4568889 171.199265,67.5133333 170.908768,67.5133333 C170.617831,67.5133333 170.34758,67.4297778 170.098457,67.2617778 C169.849333,67.0662222 169.68956,66.828 169.620897,66.5488889 C169.551354,66.2693333 169.538149,65.9688889 169.579083,65.6471111 C169.620897,65.3262222 169.68956,65.0177778 169.787273,64.7244444 C169.883665,64.4306667 169.973895,64.1724444 170.057083,63.9484444 C170.084372,63.8368889 170.112101,63.7324444 170.140271,63.6337778 C170.16712,63.536 170.208934,63.4177778 170.264392,63.2773333 L168.187337,65.0808889 C167.965503,65.3053333 167.716379,65.5355556 167.439967,65.7728889 C167.162674,66.0111111 166.864694,66.2204444 166.547348,66.4017778 C166.228241,66.584 165.902972,66.7164444 165.570661,66.8004444 C165.23879,66.8844444 164.906039,66.8844444 164.573727,66.8004444 C164.019582,66.6328889 163.680669,66.3666667 163.556107,66.0035556 C163.431545,65.6408889 163.44519,65.2346667 163.597481,64.7875556 C163.749772,64.3404444 163.992293,63.8853333 164.324604,63.424 C164.656915,62.9626667 165.016516,62.5364444 165.404726,62.1444444 L164.366418,62.5644444 C164.089125,62.7044444 163.756814,62.8933333 163.369044,63.1302222 C162.981274,63.368 162.634878,63.5013333 162.330737,63.5288889 C162.164801,63.6128889 162.025715,63.62 161.915238,63.5497778 C161.805201,63.4804444 161.728615,63.3893333 161.686801,63.2773333 C161.645427,63.1657778 161.638825,63.0466667 161.666554,62.9204444 C161.693843,62.7946667 161.790676,62.7044444 161.957052,62.648 C162.676692,62.3964444 161.790676,62.7044444 161.957052,62.648" id="Fill-16" fill="#F2AF3A"></path>
                    <path d="M178.571733,62.6973333 C179.153168,62.3902222 179.728,62.0831111 180.29579,61.7746667 C180.86314,61.4675556 181.479346,61.1182222 182.143969,60.7262222 C182.08807,60.1955556 182.248284,59.692 182.621969,59.216 C182.995654,58.7408889 183.473654,58.5173333 184.055088,58.5453333 C184.442858,58.6017778 184.691541,58.7968889 184.802899,59.1324444 C184.912936,59.468 184.857917,59.7893333 184.636523,60.0968889 C184.414249,60.4324444 184.123751,60.7124444 183.764591,60.936 C183.957376,61.048 184.193295,61.104 184.470147,61.104 C185.052462,61.16 185.660746,61.0551111 186.298079,60.7893333 C186.934972,60.5235556 187.502762,60.2368889 188.001449,59.9293333 C188.499696,59.7613333 188.817483,59.8177778 188.957009,60.0968889 C189.094775,60.3768889 189.039317,60.7124444 188.790634,61.104 C188.651107,61.3275556 188.492654,61.6142222 188.313074,61.9635556 C188.132613,62.3133333 187.980322,62.6702222 187.855761,63.0328889 C187.731199,63.3968889 187.661656,63.7462222 187.648011,64.0817778 C187.633926,64.4173333 187.737801,64.6831111 187.959635,64.8786667 C188.098282,65.0466667 188.464924,65.0466667 189.060444,64.8786667 C189.655963,64.7111111 190.45175,64.4315556 191.449123,64.0395556 C191.781435,63.9004444 192.119908,63.7395556 192.466304,63.5573333 C192.81226,63.376 193.165698,63.2008889 193.526179,63.0328889 C193.608926,63.0057778 193.733488,62.9426667 193.899864,62.8444444 C194.065799,62.7466667 194.224692,62.6768889 194.377424,62.6346667 C194.529274,62.5924444 194.668361,62.5924444 194.792923,62.6346667 C194.917484,62.6768889 194.979545,62.8235556 194.979545,63.0751111 C194.979545,63.2155556 194.917484,63.3413333 194.792923,63.4528889 C194.668361,63.5648889 194.529274,63.6622222 194.377424,63.7462222 C194.224692,63.8297778 194.065799,63.9004444 193.899864,63.956 C193.733488,64.012 193.608926,64.0542222 193.526179,64.0817778 L191.781435,64.8786667 C191.475972,65.0466667 191.095685,65.256 190.639252,65.508 C190.181939,65.7595556 189.717584,65.9693333 189.247506,66.1368889 C188.776109,66.3048889 188.318796,66.3884444 187.876888,66.3884444 C187.433219,66.3884444 187.087263,66.2071111 186.83814,65.8435556 C186.699494,65.648 186.615866,65.4311111 186.589017,65.1933333 C186.560847,64.956 186.56789,64.7177778 186.610144,64.48 C186.651077,64.2431111 186.706096,64.0048889 186.776079,63.7671111 C186.844742,63.5302222 186.906803,63.2991111 186.962262,63.0751111 L187.295013,61.6911111 C187.155926,61.7191111 186.872471,61.7893333 186.443328,61.9004444 C186.013744,62.0124444 185.550269,62.0893333 185.052462,62.1311111 C184.553775,62.1733333 184.075775,62.1666667 183.618902,62.1102222 C183.162029,62.0546667 182.822236,61.8728889 182.601282,61.5653333 C182.129884,61.8168889 181.742554,62.0266667 181.438413,62.1942222 C181.13295,62.3622222 180.821326,62.5444444 180.50354,62.7395556 C180.184873,62.9355556 179.928707,63.0893333 179.735483,63.2008889 C179.569107,63.2573333 179.375002,63.3622222 179.153168,63.5151111 C178.931333,63.6693333 178.738109,63.6906667 178.571733,63.5782222 C178.405797,63.4671111 178.32261,63.3128889 178.32261,63.1168889 C178.32261,62.9213333 178.405797,62.7813333 178.571733,62.6973333" id="Fill-17" fill="#F2AF3A"></path>
                    <path d="M203.286886,52.2115556 C203.425532,51.8484444 203.639884,51.5337778 203.930821,51.268 C204.221759,51.0022222 204.547028,50.7853333 204.907068,50.6177778 C205.266669,50.4497778 205.647836,50.3173333 206.049691,50.2191111 C206.450665,50.1217778 206.831832,50.0448889 207.191873,49.9884444 C208.188366,49.9328889 209.171215,49.9746667 210.1413,50.1142222 C210.307236,50.1142222 210.493858,50.1422222 210.702048,50.1977778 C210.909357,50.2542222 210.999147,50.408 210.971858,50.6595556 C210.944129,50.8 210.874586,50.9186667 210.764109,51.016 C210.653192,51.1142222 210.52819,51.1488889 210.389983,51.1208889 C209.587155,50.9533333 208.749554,50.8902222 207.877182,50.9324444 C207.00481,50.9742222 206.222228,51.2333333 205.530317,51.708 C205.253024,51.876 205.059359,52.1 204.948882,52.3795556 C204.837525,52.6591111 204.671589,52.8822222 204.450195,53.0502222 C204.172902,53.2742222 203.882405,53.2742222 203.577823,53.0502222 C203.272801,52.8266667 203.175969,52.5471111 203.286886,52.2115556 L203.286886,52.2115556 Z M198.426779,60.684 C198.537256,60.6284444 198.793862,60.5164444 199.195276,60.3484444 C199.596691,60.1808889 199.991503,60.0551111 200.379273,59.9711111 C200.767042,59.8871111 201.099354,59.8808889 201.376646,59.9502222 C201.652619,60.0204444 201.750331,60.2791111 201.667144,60.7262222 C201.611245,60.9777778 201.493726,61.2297778 201.314145,61.4808889 C201.133685,61.7328889 201.002521,61.9844444 200.919333,62.236 C200.752958,62.6 200.593624,63.0475556 200.441773,63.5782222 C200.289483,64.1097778 200.337899,64.5431111 200.587022,64.8786667 C201.05754,64.9351111 201.576913,64.8786667 202.145144,64.7111111 C202.712494,64.5431111 203.231427,64.3755556 203.702825,64.2075556 C203.841031,64.152 204.103799,64.012 204.492009,63.7884444 C204.879339,63.5648889 205.287355,63.3475556 205.717379,63.1382222 C206.146083,62.9284444 206.540895,62.7746667 206.900936,62.6768889 C207.260976,62.5791111 207.48281,62.6137778 207.565558,62.7813333 C207.676035,62.9773333 207.607372,63.1871111 207.357808,63.4106667 C207.108685,63.6346667 206.797501,63.8373333 206.423376,64.0186667 C206.049691,64.2008889 205.668523,64.3684444 205.281193,64.5222222 C204.892983,64.6764444 204.64342,64.7808889 204.532943,64.8368889 C203.923779,65.1444444 203.308013,65.4448889 202.684764,65.7382222 C202.061516,66.032 201.41758,66.2351111 200.752958,66.3466667 C200.171963,66.4306667 199.769669,66.3048889 199.548715,65.9693333 C199.32688,65.6337778 199.215963,65.2075556 199.215963,64.6897778 C199.215963,64.1728889 199.292549,63.6137778 199.44484,63.012 C199.596691,62.4111111 199.756464,61.8586667 199.92284,61.3555556 C199.285066,61.6066667 198.662258,61.8377778 198.053094,62.0475556 C197.44393,62.2568889 196.848411,62.5022222 196.266976,62.7813333 C195.768729,63.0057778 195.270042,63.2573333 194.771796,63.5364444 C194.466333,63.6204444 194.225133,63.5435556 194.044672,63.3057778 C193.864652,63.0684444 193.940797,62.8653333 194.273549,62.6973333 L198.426779,60.684 L198.426779,60.684 Z" id="Fill-18" fill="#F2AF3A"></path>
                    <g id="Group-23" transform="translate(51.497238, 46.666667)">
                        <mask id="mask-4" fill="white">
                            <use xlink:href="#path-3"></use>
                        </mask>
                        <g id="Clip-20"></g>
                        <path d="M155.403258,16.0306667 C156.45521,15.584 157.493517,15.1226667 158.518621,14.6466667 C159.542843,14.1715556 160.567506,13.7102222 161.59261,13.2626667 C161.814004,13.1511111 162.056085,13.0315556 162.319293,12.9057778 C162.582501,12.78 162.824582,12.7875556 163.046416,12.9271111 C163.26737,13.0671111 163.392372,13.2066667 163.420101,13.3462222 C163.44739,13.4866667 163.420101,13.6262222 163.336913,13.7657778 C163.253726,13.9062222 163.150291,14.0457778 163.025729,14.1853333 C162.900727,14.3257778 162.782768,14.4373333 162.672731,14.5208889 C162.367269,14.8288889 162.097459,15.1502222 161.86242,15.4857778 C161.626941,15.8213333 161.398505,16.1711111 161.17667,16.5342222 C161.066193,16.7017778 160.969361,16.884 160.886173,17.0795556 C160.802985,17.2751111 160.720238,17.4715556 160.63705,17.6666667 C160.442945,18.2262222 160.491801,18.5266667 160.782298,18.5684444 C161.073236,18.6102222 161.446921,18.5408889 161.904234,18.3586667 C162.360667,18.1773333 162.810497,17.9466667 163.253726,17.6666667 C163.696514,17.3875556 163.973807,17.2053333 164.084724,17.1217778 L164.458849,16.8275556 C164.40295,16.3808889 164.458849,15.9191111 164.624785,15.4435556 C164.79072,14.9684444 165.067133,14.5351111 165.455343,14.1431111 C165.676737,13.9195556 165.954029,13.6964444 166.286341,13.4724444 C166.618652,13.2488889 166.964608,13.1933333 167.324648,13.3044444 C167.740587,13.4168889 167.933812,13.6546667 167.906523,14.0173333 C167.878354,14.3813333 167.781521,14.7164444 167.615586,15.0244444 C167.393751,15.4164444 167.130983,15.7791111 166.826401,16.1146667 C166.521379,16.4502222 166.188628,16.772 165.829468,17.0795556 C166.161779,17.2195556 166.514337,17.2964444 166.888462,17.3102222 C167.262587,17.3248889 167.642875,17.2964444 168.031085,17.2262222 C168.418855,17.1568889 168.799582,17.0728889 169.173267,16.9746667 C169.547392,16.8768889 169.886306,16.772 170.190888,16.66 C170.495029,16.6044444 170.778924,16.5204444 171.042573,16.4084444 C171.305341,16.2968889 171.561506,16.1711111 171.81107,16.0306667 C172.032464,15.9191111 172.226129,15.9542222 172.392505,16.136 C172.55888,16.3177778 172.572085,16.5066667 172.434319,16.7017778 C172.350691,16.8697778 172.191357,17.0164444 171.956319,17.1422222 C171.72084,17.2684444 171.471276,17.3728889 171.208508,17.4568889 C170.9453,17.5408889 170.682092,17.6111111 170.419324,17.6666667 C170.156116,17.7231111 169.942204,17.7648889 169.775829,17.7924444 C169.221243,17.9328889 168.660055,18.0511111 168.093145,18.1488889 C167.524915,18.2475556 166.964608,18.2684444 166.410902,18.212 C165.856757,18.1844444 165.413969,18.0164444 165.081657,17.7088889 C164.693448,18.0444444 164.299076,18.3448889 163.897661,18.6102222 C163.496247,18.8764444 163.101435,19.1213333 162.714105,19.3448889 C162.408643,19.5404444 162.034958,19.7075556 161.59261,19.8475556 C161.149381,19.9875556 160.733882,20.0364444 160.346552,19.9942222 C159.957902,19.9528889 159.653761,19.7986667 159.432807,19.5328889 C159.210532,19.268 159.196888,18.8133333 159.390993,18.1702222 C159.695134,17.052 160.193821,15.9191111 160.886173,14.7724444 C160.497963,14.9128889 160.117676,15.0524444 159.743991,15.192 C159.369866,15.332 158.989138,15.472 158.601368,15.6115556 C158.15858,15.7791111 157.743081,15.9613333 157.355751,16.1568889 C156.967101,16.3524444 156.579772,16.5626667 156.192442,16.7862222 C156.026066,16.8422222 155.845606,16.8982222 155.652821,16.9537778 C155.458276,17.0102222 155.292781,16.9262222 155.154134,16.7017778 C155.043657,16.3946667 155.126405,16.1711111 155.403258,16.0306667" id="Fill-19" fill="#F2AF3A" mask="url(#mask-4)"></path>
                        <path d="M176.130236,14.8564444 C176.795298,14.8288889 177.439234,14.6608889 178.062483,14.3528889 C178.685291,14.0457778 179.231514,13.6546667 179.702471,13.1786667 C179.314702,13.0391111 178.933974,12.9968889 178.560729,13.0528889 C178.186604,13.1088889 177.840208,13.2204444 177.521982,13.3884444 C177.203755,13.556 176.91986,13.7728889 176.670737,14.0386667 C176.421173,14.3048889 176.240713,14.5773333 176.130236,14.8564444 L176.130236,14.8564444 Z M171.893378,16.0306667 C172.392064,15.7791111 172.911438,15.5 173.451059,15.192 C173.99112,14.8844444 174.537783,14.6191111 175.092368,14.3951111 C175.451529,13.7524444 175.9643,13.228 176.628923,12.8222222 C177.293985,12.4173333 177.999541,12.1444444 178.747352,12.0044444 C179.135122,11.9484444 179.584512,11.9484444 180.097724,12.0044444 C180.609615,12.0604444 181.003987,12.2706667 181.28128,12.6333333 C181.474945,12.8577778 181.523361,13.0946667 181.426529,13.3462222 C181.329256,13.5982222 181.16332,13.836 180.928282,14.0595556 C180.692363,14.2835556 180.430035,14.4862222 180.139098,14.6675556 C179.84816,14.8497778 179.633368,14.9822222 179.495602,15.0662222 C178.996915,15.3742222 178.449372,15.6048889 177.854293,15.7582222 C177.258773,15.9124444 176.655772,15.9613333 176.047488,15.9048889 L175.881112,15.9048889 C175.991589,16.5204444 176.240713,16.9955556 176.628923,17.3311111 C177.016692,17.6666667 177.473565,17.912 177.999541,18.0653333 C178.525517,18.2191111 179.072621,18.2822222 179.640851,18.2537778 C180.207761,18.2262222 180.727134,18.1702222 181.198092,18.0857778 C181.863155,17.9466667 182.513252,17.7715556 183.150145,17.5617778 C183.787479,17.352 184.410287,17.1075556 185.019451,16.8275556 C185.296304,16.6884444 185.580639,16.5551111 185.871136,16.4293333 C186.162074,16.3035556 186.431884,16.1711111 186.681448,16.0306667 C186.874672,15.9751111 187.07582,16.0035556 187.283569,16.1146667 C187.491319,16.2266667 187.512006,16.4084444 187.34607,16.66 C187.206983,16.884 187.013759,17.0373333 186.764195,17.1217778 C186.515512,17.2053333 186.293238,17.2893333 186.100013,17.3728889 L184.022958,18.296 C182.748731,18.7991111 181.489029,19.2186667 180.242972,19.5542222 C179.688827,19.6653333 179.127639,19.7008889 178.560729,19.6591111 C177.992499,19.6173333 177.466083,19.4915556 176.981921,19.2817778 C176.496878,19.0715556 176.061133,18.7715556 175.673363,18.38 C175.285153,17.9884444 175.00874,17.4853333 174.842805,16.8697778 C174.786906,16.6462222 174.73893,16.4226667 174.697556,16.1986667 C174.656182,15.9751111 174.662344,15.7653333 174.718243,15.5693333 C174.413221,15.7097778 174.115681,15.8702222 173.825184,16.0515556 C173.534687,16.2337778 173.278081,16.3946667 173.056687,16.5342222 C172.9176,16.5906667 172.73802,16.6955556 172.516626,16.8484444 C172.294792,17.0026667 172.072958,17.0102222 171.852004,16.8697778 C171.685628,16.7582222 171.609923,16.6044444 171.623567,16.4084444 C171.638092,16.2133333 171.727442,16.0871111 171.893378,16.0306667 L171.893378,16.0306667 Z" id="Fill-21" fill="#F2AF3A" mask="url(#mask-4)"></path>
                        <path d="M40.7400368,10.7884444 C41.1867864,10.0462222 41.6828324,9.34355556 42.2268545,8.68088889 C42.7704365,8.01911111 43.3298637,7.36533333 43.9060166,6.71866667 C44.0974807,6.52533333 44.3298785,6.26755556 44.6014494,5.94355556 C44.8730203,5.62177778 45.1687993,5.29822222 45.4896667,4.97466667 C45.3285727,5.23377778 45.1776022,5.49244444 45.0332339,5.75022222 C44.8893057,6.00888889 44.7374549,6.25155556 44.5772413,6.47644444 C43.4575064,8.02711111 42.1788785,9.46444444 40.7400368,10.7884444 L40.7400368,10.7884444 Z M9.36369429,10.4248889 C9.6836814,9.92444444 10.0190737,9.416 10.3711915,8.89911111 C11.0111657,8.02711111 11.6506998,7.17911111 12.290674,6.356 C12.929768,5.532 13.6172781,4.74933333 14.3532044,4.00622222 C14.60893,3.74844444 14.9368398,3.42444444 15.3369337,3.03733333 C15.7365875,2.64977778 16.1604494,2.34311111 16.6080792,2.11688889 C16.5125672,2.376 16.4003297,2.62533333 16.2726869,2.86755556 C16.1441639,3.10977778 16.0486519,3.312 15.9843904,3.47333333 C15.4724991,4.34533333 14.9293573,5.12044444 14.3532044,5.79866667 C13.1058269,7.44577778 11.7303665,8.98 10.2277035,10.4008889 C9.93984715,10.66 9.64362799,10.9262222 9.33992634,11.2 C9.03534438,11.4746667 8.74044567,11.7257778 8.45258932,11.9511111 C8.74044567,11.4351111 9.04414733,10.9262222 9.36369429,10.4248889 L9.36369429,10.4248889 Z M20.2058435,14.7364444 C20.49414,14.4297778 20.8216096,14.1795556 21.1895727,13.9857778 C21.5570958,13.7915556 21.9571897,13.6631111 22.3889742,13.5982222 C22.8211989,13.5337778 23.2604659,13.5826667 23.7080958,13.7435556 C23.1640737,14.2928889 22.5329024,14.7448889 21.8137017,15.1 C21.0940608,15.456 20.3502118,15.6493333 19.5825948,15.6813333 C19.7097974,15.3586667 19.9184273,15.044 20.2058435,14.7364444 L20.2058435,14.7364444 Z M51.5817459,8.41466667 C51.3902818,8.15644444 51.1746096,8.05111111 50.9347293,8.1 C50.694849,8.148 50.462011,8.22044444 50.2388564,8.31777778 L45.4896667,9.77111111 L42.658639,10.4493333 C43.2017808,9.868 43.7383204,9.27111111 44.2656169,8.65688889 C44.7937937,8.04355556 45.2973223,7.41422222 45.7770829,6.76755556 C46.1608913,6.28311111 46.6243665,5.74266667 47.1683886,5.14444444 C47.7115304,4.54755556 48.0632081,3.92577778 48.2238619,3.27955556 C48.3193738,2.98888889 48.2876832,2.71511111 48.1279098,2.456 C47.967256,2.19777778 47.7278158,2.06844444 47.4082689,2.06844444 C47.1204125,2.10088889 46.8400387,2.19777778 46.5684678,2.35911111 C46.2968969,2.52088889 46.0328085,2.68222222 45.7770829,2.844 C44.4650037,3.87777778 43.2898103,5.14444444 42.2510626,6.64622222 C41.2109945,8.148 40.2435506,9.59377778 39.3478508,10.9817778 C38.7725783,11.0471111 38.1968656,11.0871111 37.6211529,11.1035556 C37.0454401,11.12 36.4697274,11.1115556 35.8940147,11.0791111 C35.6061584,11.0791111 35.4221768,11.2244444 35.34207,11.5146667 C35.2619632,11.8057778 35.3495525,12.032 35.6061584,12.1933333 C35.9573959,12.3871111 36.4217514,12.4355556 36.9979042,12.3386667 C37.5731768,12.2413333 38.1004733,12.1773333 38.5802339,12.1448889 L37.9090092,13.3075556 C36.9173573,14.0506667 35.9014972,14.7293333 34.8623094,15.3422222 C33.8231215,15.956 32.7434401,16.5213333 31.6241455,17.0373333 C31.5352357,17.0915556 31.467453,17.1551111 31.4133149,17.224 C31.2275727,17.3182222 31.0361087,17.4097778 30.8332007,17.4977778 C30.4969282,17.6431111 30.1685783,17.7968889 29.8490313,17.9582222 C29.1456759,18.2813333 28.426035,18.5635556 27.6901087,18.8057778 C26.9541823,19.048 26.2028508,19.2502222 25.4352339,19.4115556 C24.8912118,19.5084444 24.291291,19.5733333 23.6363517,19.6048889 C22.9805322,19.6377778 22.3484807,19.5653333 21.7415175,19.3871111 C21.133674,19.2102222 20.6054972,19.1857778 20.1583076,18.7977778 C19.7097974,18.4106667 19.4219411,18.2986667 19.2947385,17.4097778 L19.4862026,17.4097778 C20.189558,17.4097778 20.8849908,17.16 21.5738214,16.9817778 C22.2608913,16.8048889 22.8929429,16.4084444 23.4682155,16.0528889 C23.6284291,15.956 23.876232,15.7382222 24.2120645,15.528 C24.5478969,15.3182222 24.8515985,15.0515556 25.1236096,14.7928889 C25.3947403,14.5351111 25.5870847,14.2444444 25.6993223,13.9537778 C25.8111197,13.6631111 25.755221,13.3808889 25.5316262,13.1222222 C25.2111989,12.7026667 24.7552063,12.456 24.1636483,12.3911111 C23.5720902,12.3266667 23.0522762,12.3248889 22.6046464,12.3888889 C21.7415175,12.5511111 20.9254843,12.8644444 20.1583076,13.3324444 C19.3906906,13.8013333 18.7986924,14.4053333 18.3831934,15.1484444 C17.7432192,15.4071111 17.1120479,15.7142222 16.487919,16.0688889 C15.8972413,16.4057778 15.329011,16.7111111 14.7814678,16.9897778 C14.6472228,17.0066667 14.5054954,17.0506667 14.3532044,17.1346667 C14.0010866,17.328 13.6973849,17.4573333 13.4420994,17.5217778 C12.5463996,17.9097778 11.6348545,18.2657778 10.7074641,18.5875556 C9.77919337,18.9111111 8.83595764,19.1693333 7.87687661,19.3631111 C7.81217495,19.3955556 7.66868692,19.4195556 7.44509208,19.436 C7.22061694,19.4524444 6.98073665,19.4764444 6.7254512,19.5084444 C6.43759484,19.5408889 6.11716759,19.5893333 5.76593002,19.6537778 C5.6699779,19.2342222 5.65369245,18.7897778 5.71795396,18.3213333 C5.78177532,17.8533333 5.89357274,17.3768889 6.05378637,16.8924444 C6.21311971,16.408 6.39710129,15.9475556 6.60529098,15.5115556 C6.81304052,15.0755556 6.99658195,14.664 7.15723573,14.276 C8.98032597,12.92 10.683256,11.4422222 12.2664659,9.844 C13.8496759,8.24488889 15.281035,6.52533333 16.5601031,4.684 C16.7198766,4.45866667 16.9276262,4.19244444 17.184232,3.88488889 C17.4395175,3.57822222 17.6793978,3.25511111 17.9038729,2.916 C18.1274678,2.57733333 18.2947238,2.23777778 18.4074015,1.89911111 C18.5191989,1.56 18.5108361,1.21333333 18.3836335,0.857333333 C18.1917293,0.308 17.8391713,0.0746666667 17.3277201,0.154666667 C16.8162689,0.236 16.3844843,0.372888889 16.0328066,0.567111111 C15.2964401,0.987111111 14.6489834,1.528 14.0895562,2.18933333 C13.5296888,2.85155556 13.0103149,3.50622222 12.5305543,4.15155556 C11.9548416,4.89511111 11.3949742,5.64577778 10.8509521,6.404 C10.30693,7.16311111 9.76378821,7.91422222 9.22020626,8.65688889 C8.70787477,9.46444444 8.18013812,10.2884444 7.63699632,11.1275556 C7.09253407,11.968 6.59736832,12.8395556 6.14973849,13.7435556 C5.22146777,14.3897778 4.2945175,14.9871111 3.36668692,15.5355556 C2.4392965,16.0853333 1.47933517,16.5857778 0.488563536,17.0373333 C0.104314917,17.2315556 0.0167255985,17.4662222 0.224915285,17.74 C0.432664825,18.0146667 0.695872928,18.12 1.01674033,18.0546667 C2.45558195,17.3448889 3.83016206,16.5528889 5.14224125,15.6813333 C4.78968324,16.456 4.50226703,17.2315556 4.27867219,18.0066667 C4.18272007,18.3622222 4.11801842,18.7413333 4.08632781,19.1448889 C4.0546372,19.5488889 4.09425046,19.92 4.20692818,20.2591111 C4.3187256,20.5982222 4.51855249,20.8733333 4.80640884,21.0826667 C5.09382505,21.2924444 5.47807366,21.3648889 5.95783425,21.3004444 C6.50141621,21.2684444 7.02915285,21.1475556 7.5410442,20.9377778 C8.05205525,20.7275556 8.5797919,20.5257778 9.123814,20.3315556 L14.689477,18.2488889 C14.7713444,18.2133333 14.8580534,18.1617778 14.9443223,18.1111111 C15.098814,18.1275556 15.2533057,18.0897778 15.4086777,17.9822222 C15.6644033,17.8053333 15.8717127,17.684 16.0323665,17.6191111 C16.2876519,17.4573333 16.5843112,17.272 16.9197035,17.0617778 C17.2555359,16.8524444 17.5988508,16.6666667 17.9509687,16.5048889 C17.8867072,16.7311111 17.8792247,16.9733333 17.9272007,17.2315556 C17.9751768,17.4906667 18.0310755,17.7484444 18.095337,18.0066667 C18.2872413,18.7168889 18.6063481,19.2986667 19.0548582,19.7506667 C19.502488,20.2031111 20.0060166,20.5493333 20.5663241,20.792 C21.1248711,21.0342222 21.7331547,21.1795556 22.3889742,21.2284444 C23.0439134,21.2764444 23.6918103,21.2351111 24.3322247,21.1066667 C25.7715064,20.7195556 27.2261934,20.2346667 28.6976059,19.6537778 L31.0964088,18.5875556 C31.3200037,18.4911111 31.5766096,18.3942222 31.8644659,18.2968889 C32.1061068,18.2155556 32.2997716,18.0742222 32.4516225,17.8786667 C33.9247956,17.1448889 35.3460313,16.3186667 36.7096077,15.3906667 C36.2615378,16.2311111 35.8698066,17.0133333 35.5339742,17.74 C35.198582,18.4666667 35.0616961,19.2013333 35.1263978,19.9444444 C35.2540405,20.6875556 35.5982357,21.1231111 36.157663,21.2524444 C36.7170902,21.3813333 37.340779,21.3568889 38.0287293,21.1795556 C38.7162394,21.0026667 39.4037495,20.768 40.0916998,20.4773333 C40.7792099,20.1866667 41.3153094,19.9608889 41.6991179,19.7986667 L45.105418,18.5391111 C45.3285727,18.4426667 45.6247919,18.3382222 45.9931952,18.2244444 C46.3602781,18.112 46.5605451,17.9097778 46.5922357,17.6191111 C46.6243665,17.1995556 46.488361,17.0062222 46.1850994,17.0373333 C45.8805175,17.0702222 45.6331547,17.1186667 45.4412505,17.1831111 C44.704884,17.5062222 43.9693978,17.7968889 43.2347919,18.0546667 C42.4984254,18.3137778 41.7629392,18.572 41.027453,18.8297778 C40.4517403,18.9924444 39.7717127,19.1937778 38.9886906,19.436 C38.2043481,19.6782222 37.4772247,19.7186667 36.8055599,19.5564444 C36.7096077,19.5564444 36.6933223,19.3871111 36.7580239,19.048 C36.8214052,18.7093333 36.9089945,18.3382222 37.021232,17.9342222 C37.1330295,17.5302222 37.2531897,17.1346667 37.3812726,16.7471111 C37.5089153,16.3595556 37.6048674,16.1173333 37.6691289,16.02 C37.8289024,15.6648889 37.9886759,15.3177778 38.1488895,14.9786667 C38.308663,14.64 38.5005672,14.3088889 38.7246022,13.9857778 C39.1717919,13.6306667 39.6040166,13.2755556 40.0199558,12.92 C40.4354549,12.5653333 40.8351087,12.2102222 41.2193573,11.8542222 L41.8910221,11.7088889 C43.426256,11.5146667 44.9931805,11.2724444 46.5922357,10.9817778 C48.191291,10.6915556 49.726965,10.2884444 51.1983775,9.77111111 C51.453663,9.67422222 51.6301621,9.48888889 51.7265543,9.21377778 C51.8216262,8.94 51.7740902,8.67377778 51.5817459,8.41466667 L51.5817459,8.41466667 Z" id="Fill-22" fill="#F2AF3A" mask="url(#mask-4)"></path>
                    </g>
                </g>
            </g>
        </g>
    </g>
</svg>