<svg xmlns="http://www.w3.org/2000/svg" xmlns:xlink="http://www.w3.org/1999/xlink" version="1.1" x="0px" y="0px" viewBox="0 0 50 50" enable-background="new 0 0 50 50" xml:space="preserve"><g><path fill-rule="evenodd" clip-rule="evenodd" d="M40.823,18.124c0-4.594-0.894-8.636-2.853-11.741C35.056,1.767,30.333,0,25.094,0   c-5.286,0-10.047,1.799-13,6.44c-1.998,3.14-2.92,7.224-2.92,11.861c0,2.979,0.401,5.732,0.888,8.647l6.612-1.602l0.507,0.719   c1.886,2.479,4.554,4.01,7.703,4.026c3.15-0.016,5.818-1.546,7.705-4.026c0.186-0.244,0.364-0.499,0.535-0.763l6.791,1.646   C40.414,23.977,40.823,21.16,40.823,18.124 M34.361,14.43c-1.727-1.241-3.347-2.626-4.826-4.153L27.785,8.47l-2,1.525   c-2.835,2.163-5.794,3.664-9.296,4.407l-2.361,0.5c0.135,2.676,0.374,5.382,1.269,7.843l-3.007,0.728   c-0.23-1.712-0.387-3.427-0.387-5.171c0-3.49,0.571-7.345,2.478-10.342c2.408-3.784,6.279-5.129,10.612-5.129   c4.281,0,8.114,1.311,10.483,5.063c1.869,2.963,2.416,6.788,2.416,10.23c0,1.804-0.164,3.578-0.404,5.349l-3.141-0.761   c0.873-2.313,1.061-4.752,1.127-7.409L34.361,14.43z M17.076,17.17c3.927-0.833,7.252-2.504,10.426-4.925   c1.598,1.65,3.343,3.143,5.208,4.483c-0.069,2.781-0.771,5.149-1.897,6.937l-0.066,0.102l-0.409,0.584   c-1.346,1.769-3.191,2.91-5.453,2.91c-2.245,0-4.079-1.124-5.423-2.871l-0.3-0.425c1.015,0.076,2.131,0.041,3.157,0.054v0.553   h5.095v-3.281h-5.095v0.51l-2.656-0.034c-0.481-0.006-0.917-0.072-1.288-0.198c-0.194-0.066-0.37-0.148-0.526-0.247   C17.422,20.088,17.152,18.694,17.076,17.17z M25,40.974l9.834-8.654c2.631,0.411,5.4,1.105,7.437,2.814   c2.304,1.935,2.982,4.645,2.982,7.563v4.472H4.747v-4.472c0-2.918,0.678-5.629,2.982-7.563c2.037-1.71,4.805-2.403,7.436-2.814   L25,40.974z M44.091,32.967c-2.847-2.39-6.562-3.16-10.147-3.632L25,37.204l-8.944-7.87c-3.586,0.474-7.299,1.241-10.146,3.632   c-2.502,2.1-3.992,5.185-3.992,9.73V50h46.165v-7.302C48.082,38.152,46.592,35.068,44.091,32.967z"></path></g></svg>