<svg xmlns:dc="http://purl.org/dc/elements/1.1/" xmlns:cc="http://creativecommons.org/ns#" xmlns:rdf="http://www.w3.org/1999/02/22-rdf-syntax-ns#" xmlns:svg="http://www.w3.org/2000/svg" xmlns="http://www.w3.org/2000/svg" xmlns:sodipodi="http://sodipodi.sourceforge.net/DTD/sodipodi-0.dtd" xmlns:inkscape="http://www.inkscape.org/namespaces/inkscape" version="1.1" x="0px" y="0px" viewBox="0 0 100 100"><g transform="translate(0,-952.36218)"><path style="text-indent:0;text-transform:none;direction:ltr;block-progression:tb;baseline-shift:baseline;color:#000000;enable-background:accumulate;" d="m 20.359447,959.36517 a 1.0001,1.0001 0 0 0 -0.7812,1 l 0,84.00003 a 1.0001,1.0001 0 0 0 1,1 l 58.843796,0 a 1.0001,1.0001 0 0 0 1,-1 l 0,-65.00003 a 1.0001,1.0001 0 0 0 -0.25,-0.65625 c -5.8967,-6.34 -11.7908,-12.69125 -17.6876,-19.03125 a 1.0001,1.0001 0 0 0 -0.75,-0.3125 l -41.156196,0 a 1.0001,1.0001 0 0 0 -0.2188,0 z m 1.2188,2 37.562496,0 0,19.75 a 1.0001,1.0001 0 0 0 1,1 l 18.2813,0 0,61.25003 -56.843796,0 0,-82.00003 z m 39.562496,0 0.1563,0 c 5.7057,6.13466 11.4192,12.24033 17.125,18.375 l 0,0.375 -17.2813,0 0,-18.75 z" fill="#000000" fill-opacity="1" stroke="none" marker="none" visibility="visible" display="inline" overflow="visible"></path><path style="text-indent:0;text-transform:none;direction:ltr;block-progression:tb;baseline-shift:baseline;color:#000000;enable-background:accumulate;" d="m 42.859443,998.99017 a 1.0011189,1.0011189 0 1 0 0.094,2.00003 l 26.2188,0 a 1.0001,1.0001 0 1 0 0,-2.00003 l -26.2188,0 a 1.0001,1.0001 0 0 0 -0.094,0 z" fill="#000000" fill-opacity="1" stroke="none" marker="none" visibility="visible" display="inline" overflow="visible"></path><path style="text-indent:0;text-transform:none;direction:ltr;block-progression:tb;baseline-shift:baseline;color:#000000;enable-background:accumulate;" d="m 42.859443,1009.7402 a 1.0011039,1.0011039 0 1 0 0.094,2 l 26.2188,0 a 1.0001,1.0001 0 1 0 0,-2 l -26.2188,0 a 1.0001,1.0001 0 0 0 -0.094,0 z" fill="#000000" fill-opacity="1" stroke="none" marker="none" visibility="visible" display="inline" overflow="visible"></path><path style="text-indent:0;text-transform:none;direction:ltr;block-progression:tb;baseline-shift:baseline;color:#000000;enable-background:accumulate;" d="m 42.859443,1020.4902 a 1.0011039,1.0011039 0 1 0 0.094,2 l 26.2188,0 a 1.0001,1.0001 0 1 0 0,-2 l -26.2188,0 a 1.0001,1.0001 0 0 0 -0.094,0 z" fill="#000000" fill-opacity="1" stroke="none" marker="none" visibility="visible" display="inline" overflow="visible"></path><path style="text-indent:0;text-transform:none;direction:ltr;block-progression:tb;baseline-shift:baseline;color:#000000;enable-background:accumulate;" d="m 42.859443,1031.2402 a 1.0011039,1.0011039 0 1 0 0.094,2 l 26.2188,0 a 1.0001,1.0001 0 1 0 0,-2 l -26.2188,0 a 1.0001,1.0001 0 0 0 -0.094,0 z" fill="#000000" fill-opacity="1" stroke="none" marker="none" visibility="visible" display="inline" overflow="visible"></path><path style="text-indent:0;text-transform:none;direction:ltr;block-progression:tb;baseline-shift:baseline;color:#000000;enable-background:accumulate;" d="m 37.633243,993.4678 a 1.0001,1.0001 0 0 0 -0.8819,0.51156 l -3.753496,6.49124 -1.0047,-1.74061 a 1.0001945,1.0001945 0 0 0 -1.7325,1 l 1.8701,3.24001 a 1.0001,1.0001 0 0 0 1.7318,6e-4 l 4.619996,-7.98999 a 1.0001,1.0001 0 0 0 -0.8493,-1.51281 z" fill="#000000" fill-opacity="1" stroke="none" marker="none" visibility="visible" display="inline" overflow="visible"></path><path style="text-indent:0;text-transform:none;direction:ltr;block-progression:tb;baseline-shift:baseline;color:#000000;enable-background:accumulate;" d="m 37.547043,1004.3652 a 1.0001,1.0001 0 0 0 -0.7813,0.5 c -1.250596,2.1601 -2.498996,4.3339 -3.749996,6.5 -0.3384,-0.5874 -0.6962,-1.1663 -1.0313,-1.75 a 1.0001,1.0001 0 1 0 -1.7187,1 c 0.621,1.0817 1.256,2.1717 1.875,3.25 a 1.0001,1.0001 0 0 0 1.7187,0 c 1.5395,-2.6691 3.085096,-5.3088 4.624996,-7.9688 a 1.0001,1.0001 0 0 0 -0.9374,-1.5312 z" fill="#000000" fill-opacity="1" stroke="none" marker="none" visibility="visible" display="inline" overflow="visible"></path><path style="text-indent:0;text-transform:none;direction:ltr;block-progression:tb;baseline-shift:baseline;color:#000000;enable-background:accumulate;" d="m 37.422043,1015.2714 a 1.0001,1.0001 0 0 0 -0.6563,0.5 c -1.250996,2.1609 -2.499696,4.3379 -3.749996,6.5 -0.3381,-0.5854 -0.6976,-1.1633 -1.0313,-1.75 a 1.0001,1.0001 0 1 0 -1.7187,0.9688 c 0.6236,1.0963 1.2573,2.2053 1.875,3.2812 a 1.0001,1.0001 0 0 0 1.7187,0 c 1.5406,-2.6609 3.085596,-5.3409 4.624996,-8 a 1.0001,1.0001 0 0 0 -1.0624,-1.5 z" fill="#000000" fill-opacity="1" stroke="none" marker="none" visibility="visible" display="inline" overflow="visible"></path><path style="text-indent:0;text-transform:none;direction:ltr;block-progression:tb;baseline-shift:baseline;color:#000000;enable-background:accumulate;" d="m 37.632543,1026.1478 a 1.0001,1.0001 0 0 0 -0.8815,0.5122 l -3.752496,6.4975 -1.0047,-1.7462 a 1.0001336,1.0001336 0 1 0 -1.7338,0.9975 l 1.87,3.25 a 1.0001,1.0001 0 0 0 1.7328,0 l 4.619996,-8 a 1.0001,1.0001 0 0 0 -0.8503,-1.5122 z" fill="#000000" fill-opacity="1" stroke="none" marker="none" visibility="visible" display="inline" overflow="visible"></path></g></svg>